<mxfile host="app.diagrams.net" modified="2023-12-05T05:54:17.739Z" agent="Mozilla/5.0 (Macintosh; Intel Mac OS X 10_15_7) AppleWebKit/605.1.15 (KHTML, like Gecko) Version/17.1.2 Safari/605.1.15" etag="bX3chT7FTO-075Pc1zBg" version="22.1.5" type="github">
  <diagram name="Page-1" id="aLXyriTo7gUPUwi7o5uM">
    <mxGraphModel dx="1224" dy="817" grid="1" gridSize="10" guides="1" tooltips="1" connect="1" arrows="1" fold="1" page="1" pageScale="1" pageWidth="850" pageHeight="1100" math="0" shadow="0">
      <root>
        <mxCell id="0" />
        <mxCell id="1" parent="0" />
        <mxCell id="b-DQrlXW467pQjjNaK2d-1" value="Pool" style="swimlane;html=1;childLayout=stackLayout;resizeParent=1;resizeParentMax=0;horizontal=0;startSize=20;horizontalStack=0;" parent="1" vertex="1">
          <mxGeometry x="80" y="50" width="730" height="470" as="geometry" />
        </mxCell>
        <mxCell id="b-DQrlXW467pQjjNaK2d-2" value="" style="swimlane;html=1;startSize=20;horizontal=0;" parent="b-DQrlXW467pQjjNaK2d-1" vertex="1">
          <mxGeometry x="20" width="710" height="140" as="geometry">
            <mxRectangle x="20" width="710" height="40" as="alternateBounds" />
          </mxGeometry>
        </mxCell>
        <mxCell id="b-DQrlXW467pQjjNaK2d-9" value="Artifacts" style="text;html=1;strokeColor=none;fillColor=none;align=center;verticalAlign=middle;whiteSpace=wrap;rounded=0;rotation=-90;" parent="b-DQrlXW467pQjjNaK2d-2" vertex="1">
          <mxGeometry x="-20" y="45" width="60" height="30" as="geometry" />
        </mxCell>
        <mxCell id="b-DQrlXW467pQjjNaK2d-44" value="incremented product" style="rounded=0;whiteSpace=wrap;html=1;" parent="b-DQrlXW467pQjjNaK2d-2" vertex="1">
          <mxGeometry x="370" y="20" width="120" height="60" as="geometry" />
        </mxCell>
        <mxCell id="b-DQrlXW467pQjjNaK2d-29" value="Sprint Backlog" style="rounded=0;whiteSpace=wrap;html=1;" parent="b-DQrlXW467pQjjNaK2d-2" vertex="1">
          <mxGeometry x="30" y="30" width="120" height="60" as="geometry" />
        </mxCell>
        <mxCell id="b-DQrlXW467pQjjNaK2d-10" value="Meetings" style="swimlane;html=1;startSize=20;horizontal=0;" parent="b-DQrlXW467pQjjNaK2d-1" vertex="1">
          <mxGeometry x="20" y="140" width="710" height="330" as="geometry" />
        </mxCell>
        <mxCell id="b-DQrlXW467pQjjNaK2d-5" value="" style="endArrow=open;html=1;rounded=0;endFill=0;startArrow=oval;startFill=1;endSize=6;targetPerimeterSpacing=0;sourcePerimeterSpacing=0;startSize=15;" parent="b-DQrlXW467pQjjNaK2d-10" target="b-DQrlXW467pQjjNaK2d-31" edge="1">
          <mxGeometry width="50" height="50" relative="1" as="geometry">
            <mxPoint x="30" y="280" as="sourcePoint" />
            <mxPoint x="60" y="70" as="targetPoint" />
          </mxGeometry>
        </mxCell>
        <mxCell id="b-DQrlXW467pQjjNaK2d-3" value="Create backlog" style="rounded=1;whiteSpace=wrap;html=1;" parent="b-DQrlXW467pQjjNaK2d-10" vertex="1">
          <mxGeometry x="220" y="250" width="120" height="60" as="geometry" />
        </mxCell>
        <mxCell id="b-DQrlXW467pQjjNaK2d-8" value="" style="endArrow=open;html=1;rounded=0;endFill=0;" parent="b-DQrlXW467pQjjNaK2d-10" source="b-DQrlXW467pQjjNaK2d-3" target="b-DQrlXW467pQjjNaK2d-30" edge="1">
          <mxGeometry width="50" height="50" relative="1" as="geometry">
            <mxPoint x="510" y="280" as="sourcePoint" />
            <mxPoint x="500" y="279.5" as="targetPoint" />
          </mxGeometry>
        </mxCell>
        <mxCell id="b-DQrlXW467pQjjNaK2d-30" value="Sprint" style="rounded=1;whiteSpace=wrap;html=1;" parent="b-DQrlXW467pQjjNaK2d-10" vertex="1">
          <mxGeometry x="530" y="250" width="120" height="60" as="geometry" />
        </mxCell>
        <mxCell id="b-DQrlXW467pQjjNaK2d-31" value="Initial Meeting" style="rounded=1;whiteSpace=wrap;html=1;" parent="b-DQrlXW467pQjjNaK2d-10" vertex="1">
          <mxGeometry x="60" y="250" width="120" height="60" as="geometry" />
        </mxCell>
        <mxCell id="b-DQrlXW467pQjjNaK2d-32" value="" style="endArrow=open;html=1;rounded=0;endFill=0;" parent="b-DQrlXW467pQjjNaK2d-10" source="b-DQrlXW467pQjjNaK2d-31" target="b-DQrlXW467pQjjNaK2d-3" edge="1">
          <mxGeometry width="50" height="50" relative="1" as="geometry">
            <mxPoint x="350" y="290" as="sourcePoint" />
            <mxPoint x="380" y="290" as="targetPoint" />
          </mxGeometry>
        </mxCell>
        <mxCell id="b-DQrlXW467pQjjNaK2d-12" value="Daily Scrum&amp;nbsp;" style="rounded=1;whiteSpace=wrap;html=1;" parent="b-DQrlXW467pQjjNaK2d-10" vertex="1">
          <mxGeometry x="530" y="150" width="120" height="60" as="geometry" />
        </mxCell>
        <mxCell id="b-DQrlXW467pQjjNaK2d-34" value="" style="endArrow=open;html=1;rounded=0;endFill=0;" parent="b-DQrlXW467pQjjNaK2d-10" source="b-DQrlXW467pQjjNaK2d-30" target="b-DQrlXW467pQjjNaK2d-12" edge="1">
          <mxGeometry width="50" height="50" relative="1" as="geometry">
            <mxPoint x="500" y="290" as="sourcePoint" />
            <mxPoint x="540" y="290" as="targetPoint" />
          </mxGeometry>
        </mxCell>
        <mxCell id="b-DQrlXW467pQjjNaK2d-35" value="" style="rhombus;whiteSpace=wrap;html=1;" parent="b-DQrlXW467pQjjNaK2d-10" vertex="1">
          <mxGeometry x="395" y="145" width="70" height="70" as="geometry" />
        </mxCell>
        <mxCell id="b-DQrlXW467pQjjNaK2d-36" value="" style="endArrow=open;html=1;rounded=0;endFill=0;" parent="b-DQrlXW467pQjjNaK2d-10" source="b-DQrlXW467pQjjNaK2d-12" target="b-DQrlXW467pQjjNaK2d-35" edge="1">
          <mxGeometry width="50" height="50" relative="1" as="geometry">
            <mxPoint x="500" y="290" as="sourcePoint" />
            <mxPoint x="540" y="290" as="targetPoint" />
          </mxGeometry>
        </mxCell>
        <mxCell id="b-DQrlXW467pQjjNaK2d-39" value="Sprint review" style="rounded=1;whiteSpace=wrap;html=1;" parent="b-DQrlXW467pQjjNaK2d-10" vertex="1">
          <mxGeometry x="170" y="150" width="120" height="60" as="geometry" />
        </mxCell>
        <mxCell id="b-DQrlXW467pQjjNaK2d-38" value="" style="endArrow=open;html=1;rounded=0;endFill=0;" parent="b-DQrlXW467pQjjNaK2d-10" source="b-DQrlXW467pQjjNaK2d-35" target="b-DQrlXW467pQjjNaK2d-39" edge="1">
          <mxGeometry width="50" height="50" relative="1" as="geometry">
            <mxPoint x="510" y="300" as="sourcePoint" />
            <mxPoint x="250" y="180" as="targetPoint" />
          </mxGeometry>
        </mxCell>
        <mxCell id="b-DQrlXW467pQjjNaK2d-40" value="if 2 weeks elapsed" style="edgeLabel;html=1;align=center;verticalAlign=middle;resizable=0;points=[];" parent="b-DQrlXW467pQjjNaK2d-38" vertex="1" connectable="0">
          <mxGeometry x="0.1839" y="2" relative="1" as="geometry">
            <mxPoint x="18" y="-2" as="offset" />
          </mxGeometry>
        </mxCell>
        <mxCell id="b-DQrlXW467pQjjNaK2d-48" value="" style="rhombus;whiteSpace=wrap;html=1;" parent="b-DQrlXW467pQjjNaK2d-10" vertex="1">
          <mxGeometry x="195" y="20" width="70" height="70" as="geometry" />
        </mxCell>
        <mxCell id="b-DQrlXW467pQjjNaK2d-49" value="" style="endArrow=open;html=1;rounded=0;endFill=0;entryX=0;entryY=0.25;entryDx=0;entryDy=0;" parent="b-DQrlXW467pQjjNaK2d-10" source="b-DQrlXW467pQjjNaK2d-48" target="b-DQrlXW467pQjjNaK2d-3" edge="1">
          <mxGeometry width="50" height="50" relative="1" as="geometry">
            <mxPoint x="195" y="54.580000000000126" as="sourcePoint" />
            <mxPoint x="110" y="190" as="targetPoint" />
            <Array as="points">
              <mxPoint x="110" y="55" />
              <mxPoint x="100" y="140" />
            </Array>
          </mxGeometry>
        </mxCell>
        <mxCell id="b-DQrlXW467pQjjNaK2d-50" value="poor review" style="edgeLabel;html=1;align=center;verticalAlign=middle;resizable=0;points=[];" parent="b-DQrlXW467pQjjNaK2d-49" vertex="1" connectable="0">
          <mxGeometry x="0.1212" y="-1" relative="1" as="geometry">
            <mxPoint x="8" y="1" as="offset" />
          </mxGeometry>
        </mxCell>
        <mxCell id="b-DQrlXW467pQjjNaK2d-53" value="Retrospective meeting&amp;nbsp;" style="rounded=1;whiteSpace=wrap;html=1;" parent="b-DQrlXW467pQjjNaK2d-10" vertex="1">
          <mxGeometry x="450" y="40" width="120" height="60" as="geometry" />
        </mxCell>
        <mxCell id="b-DQrlXW467pQjjNaK2d-51" value="" style="endArrow=open;html=1;rounded=0;endFill=0;" parent="b-DQrlXW467pQjjNaK2d-10" source="b-DQrlXW467pQjjNaK2d-48" target="b-DQrlXW467pQjjNaK2d-53" edge="1">
          <mxGeometry width="50" height="50" relative="1" as="geometry">
            <mxPoint x="550" y="200" as="sourcePoint" />
            <mxPoint x="360" y="55" as="targetPoint" />
          </mxGeometry>
        </mxCell>
        <mxCell id="b-DQrlXW467pQjjNaK2d-52" value="good review" style="edgeLabel;html=1;align=center;verticalAlign=middle;resizable=0;points=[];" parent="b-DQrlXW467pQjjNaK2d-51" vertex="1" connectable="0">
          <mxGeometry x="0.1538" y="-1" relative="1" as="geometry">
            <mxPoint x="-12" y="-1" as="offset" />
          </mxGeometry>
        </mxCell>
        <mxCell id="b-DQrlXW467pQjjNaK2d-25" value="" style="ellipse;whiteSpace=wrap;html=1;aspect=fixed;" parent="b-DQrlXW467pQjjNaK2d-10" vertex="1">
          <mxGeometry x="610" y="40" width="65" height="65" as="geometry" />
        </mxCell>
        <mxCell id="b-DQrlXW467pQjjNaK2d-26" value="" style="ellipse;whiteSpace=wrap;html=1;aspect=fixed;fillColor=#f5f5f5;strokeColor=#666666;fontColor=#333333;" parent="b-DQrlXW467pQjjNaK2d-10" vertex="1">
          <mxGeometry x="617.5" y="47.5" width="50" height="50" as="geometry" />
        </mxCell>
        <mxCell id="b-DQrlXW467pQjjNaK2d-4" value="" style="endArrow=open;html=1;rounded=0;exitX=1;exitY=0.5;exitDx=0;exitDy=0;endFill=0;" parent="b-DQrlXW467pQjjNaK2d-1" source="b-DQrlXW467pQjjNaK2d-3" target="b-DQrlXW467pQjjNaK2d-29" edge="1">
          <mxGeometry width="50" height="50" relative="1" as="geometry">
            <mxPoint x="310" y="550" as="sourcePoint" />
            <mxPoint x="110" y="350" as="targetPoint" />
            <Array as="points">
              <mxPoint x="390" y="400" />
              <mxPoint x="390" y="350" />
              <mxPoint x="110" y="350" />
            </Array>
          </mxGeometry>
        </mxCell>
        <mxCell id="b-DQrlXW467pQjjNaK2d-41" value="" style="endArrow=open;html=1;rounded=0;endFill=0;" parent="b-DQrlXW467pQjjNaK2d-1" source="b-DQrlXW467pQjjNaK2d-35" target="b-DQrlXW467pQjjNaK2d-44" edge="1">
          <mxGeometry width="50" height="50" relative="1" as="geometry">
            <mxPoint x="560" y="310" as="sourcePoint" />
            <mxPoint x="450" y="160" as="targetPoint" />
          </mxGeometry>
        </mxCell>
        <mxCell id="b-DQrlXW467pQjjNaK2d-45" value="if less than 2 weeks elapsed" style="edgeLabel;html=1;align=center;verticalAlign=middle;resizable=0;points=[];" parent="b-DQrlXW467pQjjNaK2d-41" vertex="1" connectable="0">
          <mxGeometry x="0.3206" y="3" relative="1" as="geometry">
            <mxPoint as="offset" />
          </mxGeometry>
        </mxCell>
        <mxCell id="b-DQrlXW467pQjjNaK2d-47" value="" style="endArrow=open;html=1;rounded=0;endFill=0;" parent="1" source="b-DQrlXW467pQjjNaK2d-39" edge="1">
          <mxGeometry width="50" height="50" relative="1" as="geometry">
            <mxPoint x="640" y="360" as="sourcePoint" />
            <mxPoint x="330" y="260" as="targetPoint" />
          </mxGeometry>
        </mxCell>
        <mxCell id="b-DQrlXW467pQjjNaK2d-55" value="" style="endArrow=open;html=1;rounded=0;endFill=0;" parent="1" source="b-DQrlXW467pQjjNaK2d-53" edge="1">
          <mxGeometry width="50" height="50" relative="1" as="geometry">
            <mxPoint x="640" y="360" as="sourcePoint" />
            <mxPoint x="710" y="240" as="targetPoint" />
          </mxGeometry>
        </mxCell>
      </root>
    </mxGraphModel>
  </diagram>
</mxfile>
